<svg xmlns="http://www.w3.org/2000/svg" width="1000" height="520" viewBox="0 0 1000 520">
<rect width="100%" height="100%" fill="white" />
<style>text{font-family:Arial,sans-serif;font-size:13px;fill:#222}.title{font-size:16px;font-weight:700}.legend{font-size:12px}</style>
<text class="title" x="60" y="24">clip_00: neural description need</text>
<line x1="60" y1="225" x2="970" y2="225" stroke="#999" />
<line x1="60" y1="45" x2="60" y2="225" stroke="#999" />
<text x="15" y="50">1.0</text>
<text x="15" y="225">0.0</text>
<text x="60" y="249">0s</text>
<text x="935" y="249">9.0s</text>
<polyline points="105.5,108.0 196.5,214.9 287.5,184.2 378.5,216.3 469.5,189.6 560.5,167.1 651.5,115.8 742.5,124.0 833.5,84.5 924.5,203.9" fill="none" stroke="#7fb3d5" stroke-width="5" />
<polyline points="105.5,225.0 196.5,182.1 287.5,210.7 378.5,225.0 469.5,225.0 560.5,225.0 651.5,225.0 742.5,225.0 833.5,225.0 924.5,225.0" fill="none" stroke="#f5b041" stroke-width="5" />
<polyline points="105.5,108.0 196.5,172.0 287.5,169.9 378.5,216.3 469.5,189.6 560.5,167.1 651.5,115.8 742.5,124.0 833.5,84.5 924.5,203.9" fill="none" stroke="#1f618d" stroke-width="3" />
<polyline points="105.5,225.0 196.5,79.3 287.5,178.3 378.5,225.0 469.5,225.0 560.5,225.0 651.5,225.0 742.5,225.0 833.5,225.0 924.5,225.0" fill="none" stroke="#b03a2e" stroke-width="3" />
<text class="legend" x="580" y="24"><tspan fill="#1f618d">need</tspan> | <tspan fill="#b03a2e">speech</tspan> | <tspan fill="#7fb3d5">standard slot</tspan> | <tspan fill="#f5b041">extended need</tspan></text>
<text class="title" x="60" y="284">clip_01: neural description need</text>
<line x1="60" y1="485" x2="970" y2="485" stroke="#999" />
<line x1="60" y1="305" x2="60" y2="485" stroke="#999" />
<text x="15" y="310">1.0</text>
<text x="15" y="485">0.0</text>
<text x="60" y="509">0s</text>
<text x="935" y="509">10.1s</text>
<polyline points="101.4,433.7 184.1,417.5 266.8,470.4 349.5,472.4 432.3,479.4 515.0,474.9 597.7,484.9 680.5,482.6 763.2,459.9 845.9,433.7 928.6,479.5" fill="none" stroke="#7fb3d5" stroke-width="5" />
<polyline points="101.4,409.4 184.1,372.5 266.8,383.8 349.5,424.9 432.3,454.0 515.0,464.3 597.7,484.6 680.5,474.5 763.2,485.0 845.9,475.5 928.6,465.2" fill="none" stroke="#f5b041" stroke-width="5" />
<polyline points="101.4,358.0 184.1,305.0 266.8,369.3 349.5,412.3 432.3,448.5 515.0,454.3 597.7,484.5 680.5,472.1 763.2,459.9 845.9,424.2 928.6,459.7" fill="none" stroke="#1f618d" stroke-width="3" />
<polyline points="101.4,377.8 184.1,372.5 266.8,327.7 349.5,336.3 432.3,332.4 515.0,363.9 597.7,336.3 680.5,338.1 763.2,485.0 845.9,456.8 928.6,344.3" fill="none" stroke="#b03a2e" stroke-width="3" />
<text class="legend" x="580" y="284"><tspan fill="#1f618d">need</tspan> | <tspan fill="#b03a2e">speech</tspan> | <tspan fill="#7fb3d5">standard slot</tspan> | <tspan fill="#f5b041">extended need</tspan></text>
</svg>